<svg width="212" height="82" viewBox="0 0 212 82" xmlns="http://www.w3.org/2000/svg">
  <defs>
    <linearGradient id="rmkL" x1="0" y1="0" x2="1" y2="1"><stop offset="0" stop-color="#15181C"/><stop offset="1" stop-color="#565F68"/></linearGradient>
    <linearGradient id="chkL" x1="0" y1="0" x2="1" y2="0.7"><stop offset="0" stop-color="#3A424A"/><stop offset="0.45" stop-color="#5C8267"/><stop offset="1" stop-color="#5FA36A"/></linearGradient>
    <linearGradient id="lg0L" x1="0" y1="0" x2="1" y2="1"><stop offset="0" stop-color="#15181C"/><stop offset="1" stop-color="#565F68"/></linearGradient><linearGradient id="lg1L" x1="0" y1="0" x2="1" y2="1"><stop offset="0" stop-color="#15181C"/><stop offset="1" stop-color="#565F68"/></linearGradient><linearGradient id="lg2L" x1="0" y1="0" x2="1" y2="1"><stop offset="0" stop-color="#15181C"/><stop offset="1" stop-color="#565F68"/></linearGradient><linearGradient id="lg3L" x1="0" y1="0" x2="1" y2="1"><stop offset="0" stop-color="#15181C"/><stop offset="1" stop-color="#565F68"/></linearGradient><linearGradient id="lg4L" x1="0" y1="0" x2="1" y2="1"><stop offset="0" stop-color="#15181C"/><stop offset="1" stop-color="#565F68"/></linearGradient>
    <style>@import url('https://fonts.googleapis.com/css2?family=Poppins:wght@600&amp;display=swap');
    .rt { font-family:'Poppins',system-ui,sans-serif; font-weight:600; font-size:52px; }</style>
  </defs>
  <g transform="translate(2,9)">
    <g stroke="url(#rmkL)" stroke-width="6.5" stroke-linecap="round" stroke-linejoin="round" fill="none">
      <path d="M20 18 V 46"/><path d="M20 18 h 8 a 8.5 8.5 0 0 1 0 17 h -8"/>
    </g>
    <path d="M28 35 L 35 46 L 51 26" stroke="url(#chkL)" stroke-width="6.5" stroke-linecap="round" stroke-linejoin="round" fill="none"/>
  </g>
  <text x="56.0" y="56" class="rt" fill="url(#lg0L)">o</text><text x="89.1" y="56" class="rt" fill="url(#lg1L)">b</text><text x="124.4" y="56" class="rt" fill="url(#lg2L)">e</text><text x="156.5" y="56" class="rt" fill="url(#lg3L)">r</text><text x="178.7" y="56" class="rt" fill="url(#lg4L)">t</text>
</svg>
